<svg xmlns="http://www.w3.org/2000/svg" width="299" height="337" viewBox="0 0 299 337">
<g>
<path d="M 271.67 325.50 C267.32,326.80 250.66,326.98 148.07,326.86 C82.86,326.79 28.38,326.53 27.00,326.28 C25.62,326.03 24.07,325.42 23.55,324.92 C23.03,324.41 21.89,324.00 21.03,324.00 C18.49,324.00 12.11,318.14 9.87,313.74 C8.08,310.24 7.87,308.54 8.38,301.58 C8.71,297.14 9.45,286.30 10.03,277.50 C10.61,268.70 11.60,259.78 12.23,257.67 C13.02,255.01 13.05,253.64 12.32,253.17 C11.58,252.70 11.65,246.75 12.54,233.50 C13.24,223.05 14.07,208.65 14.38,201.50 C14.69,194.35 15.62,177.48 16.45,164.00 C17.28,150.52 18.43,130.05 19.01,118.50 C20.14,95.66 21.27,89.00 24.17,88.25 C25.18,87.98 26.00,86.89 26.00,85.83 C26.00,84.45 27.65,83.11 31.75,81.19 C36.93,78.77 38.93,78.45 52.00,78.00 L 66.50 77.50 L 67.22 71.66 C72.06,32.80 97.25,11.52 141.00,9.35 C180.19,7.39 207.34,19.55 221.56,45.40 C223.58,49.08 225.65,53.75 226.17,55.79 C228.34,64.34 228.83,66.78 229.46,72.14 L 230.12 77.78 L 244.81 78.20 C261.37,78.67 266.34,80.20 271.94,86.58 C275.57,90.72 275.54,90.52 277.42,122.50 C278.27,136.80 279.73,161.02 280.67,176.32 C282.09,199.35 282.16,204.28 281.06,204.96 C279.64,205.84 280.37,213.00 281.88,213.00 C282.66,213.00 285.02,243.68 285.01,253.75 C285.00,256.64 284.55,259.00 284.00,259.00 C282.51,259.00 282.79,262.78 284.35,263.70 C285.29,264.25 285.91,267.89 286.36,275.50 C288.25,307.18 288.30,309.86 287.01,312.97 C285.12,317.55 277.49,323.78 271.67,325.50 ZM 33.50 312.79 C35.53,313.50 72.57,313.87 148.13,313.92 C244.71,313.99 260.23,313.80 263.31,312.52 C265.26,311.70 267.18,310.52 267.56,309.89 C268.54,308.32 268.22,295.57 266.49,267.50 C264.07,228.11 263.03,210.50 261.96,191.00 C261.09,175.02 260.42,163.62 258.56,133.50 C258.35,130.20 257.85,120.42 257.45,111.77 C256.80,97.98 256.47,95.83 254.75,94.27 C252.90,92.60 246.69,92.49 147.72,92.25 C56.43,92.04 42.43,92.20 41.02,93.48 C39.79,94.59 39.35,97.08 39.20,103.73 C38.82,120.91 36.64,151.51 35.76,152.10 C35.26,152.44 34.48,154.36 34.03,156.38 C33.40,159.18 33.56,160.42 34.72,161.58 C36.08,162.94 36.08,165.68 34.66,187.80 C33.78,201.39 32.58,221.95 31.97,233.50 C31.37,245.05 30.23,264.37 29.44,276.44 L 29.33 278.13 C27.69,303.08 27.31,308.85 29.95,311.13 C30.80,311.87 31.96,312.25 33.50,312.79 ZM 87.00 72.76 L 87.00 78.02 L 148.25 77.76 L 209.50 77.50 L 209.34 71.49 C209.07,61.13 201.91,49.03 191.59,41.50 C179.66,32.80 157.34,28.53 136.50,30.96 C126.89,32.08 117.15,34.29 114.00,36.06 C113.18,36.52 110.55,37.88 108.17,39.08 C103.05,41.65 94.88,49.54 92.52,54.20 C88.90,61.34 87.00,67.73 87.00,72.76 Z" fill="rgb(31,31,31)"/>
<path d="M 33.50 312.79 C31.96,312.25 30.80,311.87 29.95,311.13 C29.89,311.08 29.84,311.03 29.78,310.98 C34.23,311.76 64.09,312.00 148.08,312.00 C245.96,312.00 263.98,311.84 266.67,310.71 C265.85,311.29 264.59,311.98 263.31,312.52 C260.23,313.80 244.71,313.99 148.13,313.92 C72.57,313.87 35.53,313.50 33.50,312.79 ZM 35.69 169.28 C35.86,163.69 35.53,162.39 34.72,161.58 C33.56,160.42 33.40,159.18 34.03,156.38 C34.48,154.36 35.26,152.44 35.76,152.10 C36.63,151.52 38.77,121.62 39.19,104.34 C39.19,104.47 39.18,104.60 39.18,104.74 C39.07,110.11 38.54,121.93 38.00,131.00 C37.56,138.32 36.61,154.08 35.69,169.28 ZM 280.93 180.63 C281.68,192.62 282.56,207.37 283.04,216.00 C283.29,220.38 283.64,226.59 284.02,233.39 C283.28,222.96 282.33,213.00 281.88,213.00 C280.37,213.00 279.64,205.84 281.06,204.96 C282.09,204.33 282.09,199.98 280.93,180.63 ZM 284.91 249.16 C285.13,253.13 285.35,256.99 285.55,260.50 C286.03,268.96 286.55,278.34 286.98,285.93 C286.80,282.85 286.60,279.40 286.36,275.50 C285.91,267.89 285.29,264.25 284.35,263.70 C282.79,262.78 282.51,259.00 284.00,259.00 C284.55,259.00 285.00,256.64 285.01,253.75 C285.01,252.50 284.97,250.94 284.91,249.16 ZM 9.84 280.37 C10.27,273.38 10.70,265.84 11.00,260.00 C11.53,249.82 12.41,234.75 12.96,226.50 C13.32,221.14 13.73,214.24 14.05,208.32 C13.65,215.85 13.06,225.76 12.54,233.50 C11.65,246.75 11.58,252.70 12.32,253.17 C13.05,253.64 13.02,255.01 12.23,257.67 C11.60,259.78 10.61,268.70 10.03,277.50 C9.97,278.44 9.91,279.40 9.84,280.37 ZM 24.17 88.25 C23.51,88.42 22.94,88.90 22.45,89.80 C24.28,85.17 27.26,83.22 32.51,80.80 C33.92,80.16 35.18,79.68 36.68,79.31 C35.01,79.74 33.58,80.34 31.75,81.19 C27.65,83.11 26.00,84.45 26.00,85.83 C26.00,86.89 25.18,87.98 24.17,88.25 ZM 29.44 276.44 C28.42,292.03 27.98,300.60 28.10,305.34 C27.84,300.73 28.37,292.70 29.33,278.13 L 29.44 276.44 C30.23,264.37 31.37,245.05 31.97,233.50 C32.18,229.54 32.46,224.52 32.77,219.08 C32.45,224.77 32.17,229.78 31.98,233.50 C31.38,245.05 30.23,264.37 29.44,276.44 ZM 267.08 310.40 C267.82,309.37 268.16,306.58 268.08,300.16 C268.19,306.06 268.02,309.17 267.56,309.89 C267.48,310.04 267.31,310.21 267.08,310.40 ZM 287.45 294.38 C287.53,295.88 287.60,297.16 287.66,298.18 C287.86,301.87 287.94,304.71 287.89,306.93 C287.91,304.33 287.77,300.47 287.45,294.38 ZM 39.20 103.63 C39.26,101.16 39.36,99.27 39.52,97.82 C39.36,99.26 39.27,101.14 39.20,103.63 ZM 44.57 92.78 C42.28,92.97 41.34,93.20 41.01,93.49 L 41.02 93.48 C41.34,93.19 42.28,92.97 44.57,92.78 ZM 274.43 90.27 C273.84,88.73 273.07,87.87 271.94,86.58 C273.06,87.86 273.84,88.72 274.43,90.27 Z" fill="rgb(36,36,36)"/>
<path d="M 0.00 0.00 L 299.00 0.00 L 299.00 337.00 L 0.00 337.00 ZM 9.84 280.37 C9.61,283.93 9.35,287.66 9.12,291.06 C9.41,285.98 9.54,282.29 9.41,282.13 C9.24,281.93 8.32,282.54 7.37,283.49 C6.33,284.53 5.47,287.32 5.20,290.55 C4.83,295.07 4.43,295.94 2.63,296.20 C0.68,296.47 0.47,297.21 0.20,304.75 C-0.09,312.81 -0.05,313.00 2.23,313.00 C5.30,313.00 7.89,316.06 6.96,318.59 C6.55,319.69 6.89,322.16 7.72,324.27 C8.84,327.06 10.00,328.21 12.36,328.83 C14.09,329.29 15.65,329.29 15.83,328.84 C16.01,328.39 16.91,328.39 17.83,328.84 C20.18,330.01 28.81,329.59 30.16,328.24 C31.00,327.40 30.54,326.95 28.39,326.49 C28.15,326.44 27.90,326.38 27.64,326.32 C34.08,326.55 86.26,326.79 148.07,326.86 C246.91,326.98 265.98,326.81 271.14,325.64 C268.66,326.49 266.23,327.00 264.28,327.00 C262.32,327.00 262.14,327.23 263.21,328.39 C264.17,329.42 267.19,329.74 275.00,329.64 C287.72,329.47 288.73,328.85 289.07,321.00 C289.32,315.50 291.26,310.00 292.95,310.00 C294.10,310.00 291.43,304.60 289.48,302.98 C288.21,301.93 288.00,302.42 288.00,306.43 C288.00,307.53 287.94,308.55 287.80,309.51 C287.85,308.81 287.89,307.97 287.89,306.93 C287.94,304.71 287.86,301.87 287.66,298.18 C287.60,297.16 287.53,295.88 287.45,294.38 C287.42,293.83 287.39,293.26 287.36,292.68 C287.44,293.01 287.53,293.37 287.63,293.75 C287.96,294.99 288.63,296.00 289.12,296.00 C290.59,296.00 290.11,291.33 288.50,290.00 C287.85,289.46 287.42,289.29 287.18,289.51 C287.12,288.38 287.05,287.19 286.98,285.93 L 286.98 285.92 C286.89,284.36 286.80,282.71 286.70,281.01 C287.83,284.87 289.00,281.68 288.96,274.69 C288.94,270.35 288.36,266.51 287.50,265.00 C286.24,262.79 286.08,263.03 286.05,269.43 C285.88,266.42 285.71,263.40 285.55,260.50 L 285.46 258.92 C285.67,259.84 285.94,260.54 286.24,260.84 C287.22,261.82 287.63,261.50 288.23,259.29 C289.11,256.02 288.97,248.00 288.03,248.00 C286.89,248.00 287.62,235.16 288.84,233.69 C289.75,232.60 289.65,231.41 288.40,228.42 C287.40,226.02 286.99,223.10 287.32,220.65 C287.61,218.49 287.37,215.96 286.78,215.01 C286.12,213.97 286.02,212.17 286.52,210.40 C286.96,208.81 287.20,207.05 287.05,206.50 C286.06,202.94 286.18,195.51 287.23,194.86 C288.17,194.28 288.13,193.26 287.08,190.35 C286.09,187.62 286.03,186.49 286.86,186.21 C288.27,185.74 288.35,181.66 287.00,178.99 L 285.00 175.01 C284.45,173.92 284.00,172.77 284.00,172.45 C284.00,172.14 284.45,172.16 285.00,172.50 C285.60,172.87 286.00,171.68 286.00,169.56 C286.00,167.60 285.55,166.00 285.00,166.00 C284.45,166.00 284.00,165.12 284.00,164.04 C284.00,162.47 281.44,160.00 279.81,160.00 C279.76,160.00 279.78,161.11 279.86,163.06 C279.70,160.44 279.54,157.73 279.37,155.00 C279.57,155.66 279.86,155.87 280.25,155.74 C280.94,155.50 281.41,154.00 281.30,152.40 C280.71,143.62 279.13,141.60 279.01,149.00 C278.73,144.36 278.45,139.76 278.19,135.43 C278.25,136.06 278.34,136.77 278.46,137.59 C279.11,141.89 279.29,142.14 280.78,140.65 C282.26,139.17 282.25,138.75 280.65,135.40 C278.98,131.88 278.07,131.52 278.11,134.13 C277.86,129.86 277.62,125.90 277.42,122.50 L 277.38 121.75 C277.53,123.27 277.66,124.23 277.77,124.40 C278.06,124.90 278.91,124.48 279.64,123.47 C280.84,121.84 280.88,117.98 279.82,107.06 C279.79,106.75 279.89,106.05 280.04,105.50 C280.63,103.39 281.19,91.98 281.05,84.78 C280.97,80.32 279.02,78.97 272.18,78.64 C266.59,78.37 265.00,77.55 265.00,74.94 C265.00,73.87 264.66,72.99 264.25,72.97 C263.84,72.95 256.75,72.67 248.50,72.35 C240.25,72.03 233.35,71.63 233.16,71.46 C232.98,71.30 232.68,67.79 232.50,63.68 C232.32,59.56 231.71,55.32 231.13,54.25 C230.41,52.89 230.42,51.98 231.18,51.22 C232.68,49.72 231.35,46.65 229.50,47.36 C226.64,48.46 224.18,44.27 224.39,38.67 C224.60,32.90 223.49,29.60 221.58,30.33 C219.79,31.02 218.10,29.75 217.75,27.46 C217.23,24.14 216.00,23.00 212.94,23.00 C210.51,23.00 210.00,22.59 210.00,20.62 C210.00,17.77 207.85,15.79 204.19,15.27 C202.71,15.06 200.60,14.75 199.50,14.57 C198.40,14.40 196.15,14.19 194.50,14.11 C192.69,14.03 191.98,13.67 192.70,13.20 C194.49,12.07 193.85,8.09 191.78,7.43 C190.79,7.12 187.56,7.16 184.61,7.53 C181.29,7.94 179.00,7.81 178.61,7.17 C178.21,6.54 176.89,6.46 175.12,6.97 C173.55,7.42 171.68,7.42 170.97,6.98 C170.25,6.54 168.65,6.56 167.40,7.04 C166.05,7.55 165.00,7.52 164.82,6.96 C164.28,5.36 155.21,4.58 153.51,5.99 C152.68,6.68 152.00,7.57 152.00,7.96 C152.00,8.33 156.38,9.11 161.92,9.75 C155.38,9.11 148.41,8.98 141.00,9.35 C133.60,9.71 126.73,10.63 120.40,12.08 C125.04,10.95 129.99,10.07 135.25,9.44 C138.60,9.04 140.00,8.43 140.00,7.35 C140.00,6.02 138.67,5.92 130.25,6.58 C124.89,7.00 117.35,7.31 113.50,7.27 C105.50,7.20 102.95,8.14 103.50,10.98 C103.92,13.17 102.97,14.05 99.69,14.48 C98.49,14.63 96.71,15.09 95.75,15.49 C94.79,15.89 94.00,15.81 94.00,15.31 C94.00,14.81 92.84,14.43 91.43,14.45 C88.80,14.50 86.54,17.12 87.26,19.28 C87.87,21.12 85.28,23.17 82.78,22.81 C81.04,22.57 80.15,23.33 78.76,26.25 C77.78,28.31 76.28,30.00 75.42,30.00 C72.53,30.00 71.16,32.62 70.93,38.60 C70.68,44.91 69.50,48.42 67.94,47.46 C67.41,47.14 66.08,47.16 64.98,47.51 C63.12,48.10 63.00,48.85 63.35,57.82 C63.55,63.14 63.32,68.57 62.84,69.87 C61.98,72.17 61.71,72.23 52.48,71.82 C46.97,71.58 43.00,71.80 43.00,72.34 C43.00,72.88 40.86,73.03 38.00,72.69 C33.24,72.12 32.93,72.23 31.50,75.00 C29.84,78.21 25.19,79.69 20.00,78.65 C16.22,77.89 14.09,80.69 14.52,85.82 C15.75,100.23 16.06,118.00 15.09,118.00 C14.49,118.00 14.00,119.12 14.00,120.50 C14.00,121.88 14.45,123.00 15.00,123.00 C15.55,123.00 16.00,123.71 16.00,124.57 C16.00,125.91 16.21,125.94 17.38,124.77 C18.33,123.81 18.97,119.25 19.44,109.94 C19.81,102.80 20.28,97.65 21.17,93.78 C20.25,98.26 19.63,105.93 19.01,118.50 C18.84,121.89 18.62,126.05 18.37,130.58 C18.28,128.99 18.03,128.15 17.64,128.28 C15.37,129.03 14.13,133.09 15.22,136.20 C15.95,138.29 15.92,139.88 15.12,141.62 C14.51,142.98 14.00,145.42 14.00,147.05 C14.00,151.85 16.78,150.78 17.40,145.75 C17.49,144.99 17.58,144.25 17.66,143.53 C17.25,150.74 16.82,157.95 16.46,163.84 C16.60,160.50 16.63,158.30 16.50,158.17 C16.28,157.94 14.61,158.63 12.80,159.68 C9.51,161.60 9.50,161.64 8.94,171.05 C8.63,176.25 7.89,181.37 7.30,182.44 C6.09,184.60 7.50,188.99 9.41,189.02 C10.11,189.03 10.08,189.30 9.31,189.79 C8.17,190.51 8.08,192.16 8.17,210.00 C8.19,213.57 7.90,218.11 7.51,220.09 C7.00,222.76 7.23,224.09 8.44,225.30 C11.33,228.18 12.63,227.37 13.49,218.12 C13.31,221.08 13.13,223.96 12.96,226.50 C12.86,227.94 12.76,229.60 12.64,231.40 C12.49,230.31 12.00,229.97 10.99,229.71 C9.53,229.33 8.86,229.77 8.49,231.34 C7.70,234.73 7.18,251.15 7.75,254.75 C8.03,256.54 8.84,258.00 9.54,258.00 C10.44,258.00 11.00,255.37 11.43,249.25 C11.63,246.30 11.89,242.82 12.13,239.91 C11.72,246.75 11.30,254.18 11.00,260.00 C10.95,261.13 10.88,262.33 10.82,263.57 C10.65,262.55 10.35,262.00 9.93,262.00 C8.26,262.00 5.33,265.28 6.62,265.71 C7.35,265.95 7.46,267.47 6.95,270.27 C6.52,272.64 6.59,275.24 7.13,276.24 C8.56,278.92 9.53,278.37 10.20,274.45 C10.08,276.43 9.96,278.42 9.84,280.37 ZM 35.69 169.28 C35.93,165.37 36.16,161.42 36.39,157.59 C36.16,162.20 36.01,165.84 36.01,167.25 C36.00,169.37 36.68,169.46 38.56,167.58 C39.65,166.49 39.69,166.04 38.74,165.66 C37.78,165.27 37.81,164.93 38.86,164.20 C39.88,163.49 40.04,161.94 39.52,158.12 C39.13,155.31 39.21,153.00 39.69,153.00 C40.76,153.00 40.68,137.53 39.58,133.75 C39.05,131.92 39.16,131.00 39.89,131.00 C41.25,131.00 41.41,120.37 40.06,119.54 C39.55,119.22 38.87,120.88 38.55,123.23 C38.48,123.75 38.37,124.93 38.25,126.57 C38.55,121.07 38.83,115.15 39.00,110.49 C39.03,114.24 39.21,114.15 40.57,112.21 C42.33,109.69 42.14,104.87 40.25,104.24 C39.68,104.06 39.33,104.55 39.15,105.89 C39.16,105.48 39.17,105.09 39.18,104.74 C39.18,104.60 39.19,104.47 39.19,104.34 C39.19,104.13 39.20,103.93 39.20,103.73 L 39.20 103.63 L 39.20 103.63 L 39.69 96.64 C40.16,97.36 41.45,97.68 43.35,97.28 C45.08,96.91 92.05,96.47 147.73,96.30 C242.55,96.00 249.08,96.09 250.98,97.71 C252.09,98.67 253.00,99.93 253.00,100.52 C253.00,101.12 253.54,102.14 254.20,102.80 C255.83,104.43 256.64,104.32 256.90,102.19 C257.09,104.54 257.25,107.63 257.45,111.77 C257.51,113.16 257.58,114.58 257.65,115.99 C257.64,115.95 257.63,115.91 257.62,115.88 C257.28,114.16 257.00,112.13 257.00,111.38 C257.00,110.62 256.33,110.00 255.50,110.00 C253.61,110.00 253.38,117.58 255.25,118.34 C256.74,118.94 257.51,119.04 257.77,118.41 C258.09,124.95 258.40,131.03 258.56,133.50 C258.97,140.27 259.33,146.10 259.65,151.24 C259.54,149.60 259.44,148.19 259.35,147.00 C259.01,142.32 258.66,136.93 258.57,135.00 C258.11,124.48 257.92,123.00 257.04,123.00 C254.94,123.00 253.79,127.08 255.04,130.09 C255.99,132.38 255.98,133.32 255.00,134.50 C254.10,135.58 254.08,136.00 254.91,136.00 C255.76,136.00 255.96,142.34 255.67,160.06 C255.36,178.65 255.56,184.42 256.54,185.40 C257.36,186.21 257.49,187.19 256.92,188.09 C255.68,190.05 255.75,196.27 257.00,195.50 C257.60,195.13 258.00,196.49 258.00,198.94 C258.00,201.17 257.55,203.00 257.00,203.00 C255.42,203.00 255.81,211.95 257.46,213.61 C258.75,214.89 258.68,215.51 256.89,218.69 C254.88,222.27 254.95,227.00 257.02,227.00 C257.56,227.00 258.00,227.65 258.00,228.45 C258.00,229.25 259.15,231.05 260.55,232.45 C262.70,234.61 263.99,235.33 264.48,234.59 C265.04,243.74 265.69,254.42 266.49,267.50 C266.59,269.16 266.69,270.76 266.78,272.31 C266.67,271.19 266.54,270.15 266.40,269.25 C266.11,267.30 265.33,266.00 264.45,266.00 C263.10,266.00 262.41,268.20 263.04,270.50 C263.19,271.05 263.37,274.45 263.44,278.06 C263.52,282.25 264.09,285.21 265.03,286.27 C265.84,287.18 266.80,287.94 267.17,287.96 C267.39,287.97 267.48,286.73 267.48,284.83 C267.57,286.62 267.65,288.31 267.72,289.90 C267.64,289.49 267.55,289.21 267.44,289.10 C267.18,288.85 266.31,289.51 265.49,290.57 C264.50,291.87 264.20,293.71 264.58,296.18 C265.46,301.85 259.59,313.39 257.53,310.05 C257.08,309.33 222.12,309.00 145.52,309.00 L 34.16 309.00 L 32.97 305.41 C32.32,303.44 32.03,300.60 32.33,299.10 C32.84,296.55 31.73,289.34 30.31,286.00 C29.63,284.41 28.82,288.30 28.38,294.09 C28.61,289.54 28.96,283.77 29.44,276.44 L 29.45 276.34 C29.24,282.02 30.06,283.76 31.50,280.25 C32.71,277.33 33.22,261.21 32.17,259.33 C31.15,257.52 30.60,260.04 29.79,271.07 C30.18,264.89 30.61,257.67 31.02,250.77 C31.00,251.26 31.00,251.67 31.00,251.97 L 31.00 256.45 L 32.75 253.97 C34.13,252.02 34.55,249.08 34.73,240.10 C34.86,233.84 35.08,228.66 35.23,228.60 C38.26,227.44 39.58,225.74 40.03,222.40 C40.60,218.26 39.41,213.00 37.90,213.00 C37.41,213.00 37.00,212.52 37.00,211.94 C37.00,211.36 37.47,211.18 38.06,211.53 C38.76,211.97 39.04,210.36 38.89,206.76 C38.77,203.78 38.97,200.86 39.33,200.27 C40.44,198.49 40.96,183.09 39.94,182.46 C39.35,182.10 39.37,181.17 40.00,180.01 C41.24,177.69 41.31,174.00 40.12,174.00 C39.63,174.00 39.00,173.10 38.71,172.00 C37.91,168.95 36.29,169.62 35.67,173.25 C35.60,173.69 35.50,174.65 35.38,176.02 C35.53,173.26 35.64,171.05 35.69,169.28 ZM 138.16 32.38 C139.74,33.53 156.68,33.65 157.82,32.51 C158.71,31.62 156.76,30.85 153.63,30.42 C155.95,30.54 158.26,30.73 160.52,31.00 C159.07,31.02 159.09,31.23 160.36,32.50 C161.18,33.33 162.79,34.00 163.93,34.00 C165.94,34.00 166.39,34.84 166.08,38.07 C165.89,40.08 170.19,42.12 172.09,40.93 C172.87,40.44 174.40,40.33 175.50,40.67 C176.60,41.02 178.85,41.34 180.50,41.40 C182.97,41.48 183.50,41.92 183.50,43.88 C183.50,45.20 184.18,46.59 185.00,46.98 C189.34,49.03 190.42,49.76 191.03,51.07 C193.11,55.60 194.00,56.57 196.85,57.39 C199.68,58.20 200.00,58.68 200.00,62.11 C200.00,64.98 200.35,65.80 201.40,65.40 C202.86,64.84 206.00,68.49 206.00,70.76 C206.00,71.83 195.29,72.05 148.14,71.96 L 90.28 71.85 L 90.93 68.67 C91.39,66.41 92.21,65.41 93.79,65.18 C95.50,64.93 96.14,63.98 96.63,60.93 C97.11,57.92 97.71,57.00 99.19,57.00 C102.45,57.00 104.71,55.22 105.32,52.17 C105.76,49.93 106.59,49.13 108.95,48.66 C111.54,48.14 112.00,47.60 112.00,45.03 C112.00,43.36 112.34,41.97 112.75,41.93 C113.16,41.89 114.85,41.67 116.50,41.43 C118.15,41.19 121.22,40.83 123.32,40.62 C127.55,40.21 129.00,39.20 129.41,36.38 C129.58,35.20 130.64,34.39 132.25,34.19 C133.67,34.02 135.09,33.21 135.41,32.38 C135.71,31.58 135.55,31.23 134.36,31.23 C135.07,31.13 135.79,31.04 136.50,30.96 C137.92,30.80 139.35,30.66 140.78,30.56 C137.26,31.11 136.86,31.43 138.16,32.38 ZM 263.25 258.50 C265.51,261.08 266.28,260.07 265.64,255.36 C265.29,252.81 265.00,249.88 265.00,248.86 C265.00,247.84 264.33,247.00 263.50,247.00 C261.59,247.00 261.39,256.39 263.25,258.50 ZM 267.08 310.40 L 267.06 310.41 C267.60,309.50 267.96,304.94 268.08,300.27 C268.16,306.62 267.82,309.38 267.08,310.40 ZM 175.63 34.06 C181.89,35.92 187.38,38.44 191.59,41.50 C187.95,38.85 181.80,36.08 175.63,34.06 ZM 284.58 316.68 C283.59,317.89 282.35,319.11 280.82,320.42 C279.69,321.39 278.30,322.32 276.77,323.16 C279.69,321.40 282.56,319.03 284.58,316.68 ZM 23.29 324.71 C22.40,324.30 21.34,324.00 20.74,324.00 C19.57,324.00 17.30,322.39 15.07,320.28 C15.36,320.55 15.65,320.81 15.94,321.06 C17.93,322.79 19.87,324.00 21.03,324.00 C21.77,324.00 22.71,324.30 23.29,324.71 ZM 263.76 80.61 C261.10,79.61 257.84,79.01 253.40,78.63 C258.09,78.98 261.18,79.55 263.76,80.61 ZM 192.56 17.84 C205.12,23.88 214.77,33.06 221.56,45.40 C214.79,33.10 205.10,23.89 192.56,17.84 ZM 283.31 220.79 C283.67,226.75 283.97,231.83 284.21,236.12 C284.15,235.21 284.08,234.30 284.02,233.39 C283.76,228.80 283.52,224.47 283.31,220.79 ZM 121.88 33.49 C118.35,34.40 115.17,35.40 114.00,36.06 C115.45,35.24 118.29,34.34 121.88,33.49 ZM 276.30 104.17 C276.00,99.94 275.73,96.94 275.43,94.73 C275.80,97.10 276.06,100.13 276.30,104.17 ZM 28.08 303.33 C28.10,304.93 28.18,306.34 28.31,307.49 C28.21,306.87 28.14,306.16 28.10,305.34 C28.08,304.73 28.08,304.06 28.08,303.33 ZM 273.08 87.92 C272.83,87.61 272.56,87.30 272.27,86.96 C272.16,86.84 272.05,86.71 271.94,86.58 C271.72,86.33 271.50,86.09 271.28,85.85 C271.97,86.52 272.57,87.18 273.08,87.92 ZM 44.20 92.81 C42.16,93.01 41.33,93.25 40.94,93.56 C40.97,93.53 40.99,93.51 41.01,93.49 C41.32,93.22 42.17,92.99 44.20,92.81 ZM 254.82 94.34 C254.45,94.02 254.00,93.75 252.92,93.53 C253.97,93.74 254.43,93.98 254.75,94.27 C254.77,94.30 254.80,94.32 254.82,94.34 ZM 22.35 89.98 C22.47,89.70 22.59,89.42 22.71,89.16 C22.62,89.37 22.53,89.58 22.45,89.80 C22.41,89.86 22.38,89.92 22.35,89.98 ZM 10.26 314.46 C10.13,314.24 10.02,314.03 9.91,313.82 C10.02,314.03 10.13,314.24 10.26,314.46 Z" fill="rgb(255,255,255)"/>
<path d="M 12.36 328.83 C10.00,328.21 8.84,327.06 7.72,324.27 C6.89,322.16 6.55,319.69 6.96,318.59 C7.89,316.06 5.30,313.00 2.23,313.00 C-0.05,313.00 -0.09,312.81 0.20,304.75 C0.47,297.21 0.68,296.47 2.63,296.20 C4.43,295.94 4.83,295.07 5.20,290.55 C5.47,287.32 6.33,284.53 7.37,283.49 C8.32,282.54 9.24,281.93 9.41,282.13 C9.58,282.33 9.31,288.65 8.80,296.17 C7.94,308.96 8.01,310.10 9.91,313.82 C12.00,317.93 18.47,324.00 20.74,324.00 C21.45,324.00 22.81,324.42 23.76,324.94 C24.72,325.46 26.80,326.16 28.39,326.49 C30.54,326.95 31.00,327.40 30.16,328.24 C28.81,329.59 20.18,330.01 17.83,328.84 C16.91,328.39 16.01,328.39 15.83,328.84 C15.65,329.29 14.09,329.29 12.36,328.83 ZM 263.21 328.39 C262.14,327.23 262.32,327.00 264.28,327.00 C269.03,327.00 276.70,323.95 280.82,320.42 C286.19,315.82 288.00,312.30 288.00,306.43 C288.00,302.42 288.21,301.93 289.48,302.98 C291.43,304.60 294.10,310.00 292.95,310.00 C291.26,310.00 289.32,315.50 289.07,321.00 C288.73,328.85 287.72,329.47 275.00,329.64 C267.19,329.74 264.17,329.42 263.21,328.39 ZM 29.20 310.80 C28.45,310.05 28.03,306.57 28.07,301.55 C28.16,292.18 29.37,283.78 30.31,286.00 C31.73,289.34 32.84,296.55 32.33,299.10 C32.03,300.60 32.32,303.44 32.97,305.41 L 34.16 309.00 L 145.52 309.00 C222.12,309.00 257.08,309.33 257.53,310.05 C259.59,313.39 265.46,301.85 264.58,296.18 C264.20,293.71 264.50,291.87 265.49,290.57 C266.31,289.51 267.18,288.85 267.44,289.10 C268.57,290.24 268.19,309.06 267.00,310.49 C265.90,311.82 251.66,312.00 148.08,312.00 C57.88,312.00 30.12,311.72 29.20,310.80 ZM 287.63 293.75 C286.55,289.71 286.81,288.59 288.50,290.00 C290.11,291.33 290.59,296.00 289.12,296.00 C288.63,296.00 287.96,294.99 287.63,293.75 ZM 265.03 286.27 C264.09,285.21 263.52,282.25 263.44,278.06 C263.37,274.45 263.19,271.05 263.04,270.50 C262.41,268.20 263.10,266.00 264.45,266.00 C265.33,266.00 266.11,267.30 266.40,269.25 C267.33,275.33 267.85,288.00 267.17,287.96 C266.80,287.94 265.84,287.18 265.03,286.27 ZM 286.63 280.74 C286.30,279.51 286.04,274.90 286.05,270.50 C286.07,263.06 286.17,262.68 287.50,265.00 C288.36,266.51 288.94,270.35 288.96,274.69 C289.00,281.84 287.77,285.01 286.63,280.74 ZM 29.56 274.25 C30.51,260.52 31.06,257.36 32.17,259.33 C33.22,261.21 32.71,277.33 31.50,280.25 C29.90,284.16 29.06,281.56 29.56,274.25 ZM 7.13 276.24 C6.59,275.24 6.52,272.64 6.95,270.27 C7.46,267.47 7.35,265.95 6.62,265.71 C5.33,265.28 8.26,262.00 9.93,262.00 C11.14,262.00 11.31,266.47 10.36,273.36 C9.69,278.26 8.69,279.15 7.13,276.24 ZM 286.24 260.84 C285.56,260.16 285.01,257.33 285.02,254.55 C285.03,249.31 283.93,229.87 281.13,185.75 C280.23,171.59 279.64,160.00 279.81,160.00 C281.44,160.00 284.00,162.47 284.00,164.04 C284.00,165.12 284.45,166.00 285.00,166.00 C285.55,166.00 286.00,167.60 286.00,169.56 C286.00,171.68 285.60,172.87 285.00,172.50 C284.45,172.16 284.00,172.14 284.00,172.45 C284.00,172.77 284.45,173.92 285.00,175.01 C285.55,176.11 286.45,177.89 287.00,178.99 C288.35,181.66 288.27,185.74 286.86,186.21 C286.03,186.49 286.09,187.62 287.08,190.35 C288.13,193.26 288.17,194.28 287.23,194.86 C286.18,195.51 286.06,202.94 287.05,206.50 C287.20,207.05 286.96,208.81 286.52,210.40 C286.02,212.17 286.12,213.97 286.78,215.01 C287.37,215.96 287.61,218.49 287.32,220.65 C286.99,223.10 287.40,226.02 288.40,228.42 C289.65,231.41 289.75,232.60 288.84,233.69 C287.62,235.16 286.89,248.00 288.03,248.00 C288.97,248.00 289.11,256.02 288.23,259.29 C287.63,261.50 287.22,261.82 286.24,260.84 ZM 263.25 258.50 C261.39,256.39 261.59,247.00 263.50,247.00 C264.33,247.00 265.00,247.84 265.00,248.86 C265.00,249.88 265.29,252.81 265.64,255.36 C266.28,260.07 265.51,261.08 263.25,258.50 ZM 7.75 254.75 C7.18,251.15 7.70,234.73 8.49,231.34 C8.86,229.77 9.53,229.33 10.99,229.71 C12.75,230.17 12.93,230.86 12.51,235.37 C12.25,238.19 11.76,244.44 11.43,249.25 C11.00,255.37 10.44,258.00 9.54,258.00 C8.84,258.00 8.03,256.54 7.75,254.75 ZM 31.00 251.97 C31.00,249.51 31.43,240.52 31.96,232.00 C32.49,223.48 33.42,207.50 34.03,196.50 C34.63,185.50 35.37,175.04 35.67,173.25 C36.29,169.62 37.91,168.95 38.71,172.00 C39.00,173.10 39.63,174.00 40.12,174.00 C41.31,174.00 41.24,177.69 40.00,180.01 C39.37,181.17 39.35,182.10 39.94,182.46 C40.96,183.09 40.44,198.49 39.33,200.27 C38.97,200.86 38.77,203.78 38.89,206.76 C39.04,210.36 38.76,211.97 38.06,211.53 C37.47,211.18 37.00,211.36 37.00,211.94 C37.00,212.52 37.41,213.00 37.90,213.00 C39.41,213.00 40.60,218.26 40.03,222.40 C39.58,225.74 38.26,227.44 35.23,228.60 C35.08,228.66 34.86,233.84 34.73,240.10 C34.55,249.08 34.13,252.02 32.75,253.97 L 31.00 256.45 L 31.00 251.97 ZM 260.55 232.45 C259.15,231.05 258.00,229.25 258.00,228.45 C258.00,227.65 257.56,227.00 257.02,227.00 C254.95,227.00 254.88,222.27 256.89,218.69 C258.68,215.51 258.75,214.89 257.46,213.61 C255.81,211.95 255.42,203.00 257.00,203.00 C257.55,203.00 258.00,201.17 258.00,198.94 C258.00,196.49 257.60,195.13 257.00,195.50 C255.75,196.27 255.68,190.05 256.92,188.09 C257.49,187.19 257.36,186.21 256.54,185.40 C255.56,184.42 255.36,178.65 255.67,160.06 C255.96,142.34 255.76,136.00 254.91,136.00 C254.08,136.00 254.10,135.58 255.00,134.50 C255.98,133.32 255.99,132.38 255.04,130.09 C253.79,127.08 254.94,123.00 257.04,123.00 C257.92,123.00 258.11,124.48 258.57,135.00 C258.66,136.93 259.01,142.32 259.35,147.00 C260.03,156.19 261.38,179.35 263.01,209.50 C263.58,219.95 264.27,229.96 264.56,231.75 C265.20,235.68 263.98,235.89 260.55,232.45 ZM 8.44 225.30 C7.23,224.09 7.00,222.76 7.51,220.09 C7.90,218.11 8.19,213.57 8.17,210.00 C8.08,192.16 8.17,190.51 9.31,189.79 C10.08,189.30 10.11,189.03 9.41,189.02 C7.50,188.99 6.09,184.60 7.30,182.44 C7.89,181.37 8.63,176.25 8.94,171.05 C9.50,161.64 9.51,161.60 12.80,159.68 C14.61,158.63 16.28,157.94 16.50,158.17 C16.73,158.39 16.48,165.08 15.95,173.04 C15.42,180.99 14.75,193.35 14.47,200.50 C13.47,225.92 12.60,229.46 8.44,225.30 ZM 36.01 167.25 C36.02,162.06 38.05,126.87 38.55,123.23 C38.87,120.88 39.55,119.22 40.06,119.54 C41.41,120.37 41.25,131.00 39.89,131.00 C39.16,131.00 39.05,131.92 39.58,133.75 C40.68,137.53 40.76,153.00 39.69,153.00 C39.21,153.00 39.13,155.31 39.52,158.12 C40.04,161.94 39.88,163.49 38.86,164.20 C37.81,164.93 37.78,165.27 38.74,165.66 C39.69,166.04 39.65,166.49 38.56,167.58 C36.68,169.46 36.00,169.37 36.01,167.25 ZM 279.00 149.92 C279.00,141.46 280.69,143.28 281.30,152.40 C281.41,154.00 280.94,155.50 280.25,155.74 C279.34,156.05 279.00,154.48 279.00,149.92 ZM 14.00 147.05 C14.00,145.42 14.51,142.98 15.12,141.62 C15.92,139.88 15.95,138.29 15.22,136.20 C14.13,133.09 15.37,129.03 17.64,128.28 C18.77,127.91 18.66,135.40 17.40,145.75 C16.78,150.78 14.00,151.85 14.00,147.05 ZM 278.46 137.59 C277.57,131.62 278.44,130.75 280.65,135.40 C282.25,138.75 282.26,139.17 280.78,140.65 C279.29,142.14 279.11,141.89 278.46,137.59 ZM 16.00 124.57 C16.00,123.71 15.55,123.00 15.00,123.00 C14.45,123.00 14.00,121.88 14.00,120.50 C14.00,119.12 14.49,118.00 15.09,118.00 C16.06,118.00 15.75,100.23 14.52,85.82 C14.09,80.69 16.22,77.89 20.00,78.65 C25.19,79.69 29.84,78.21 31.50,75.00 C32.93,72.23 33.24,72.12 38.00,72.69 C40.86,73.03 43.00,72.88 43.00,72.34 C43.00,71.80 46.97,71.58 52.48,71.82 C61.71,72.23 61.98,72.17 62.84,69.87 C63.32,68.57 63.55,63.14 63.35,57.82 C63.00,48.85 63.12,48.10 64.98,47.51 C66.08,47.16 67.41,47.14 67.94,47.46 C69.50,48.42 70.68,44.91 70.93,38.60 C71.16,32.62 72.53,30.00 75.42,30.00 C76.28,30.00 77.78,28.31 78.76,26.25 C80.15,23.33 81.04,22.57 82.78,22.81 C85.28,23.17 87.87,21.12 87.26,19.28 C86.54,17.12 88.80,14.50 91.43,14.45 C92.84,14.43 94.00,14.81 94.00,15.31 C94.00,15.81 94.79,15.89 95.75,15.49 C96.71,15.09 98.49,14.63 99.69,14.48 C102.97,14.05 103.92,13.17 103.50,10.98 C102.95,8.14 105.50,7.20 113.50,7.27 C117.35,7.31 124.89,7.00 130.25,6.58 C138.67,5.92 140.00,6.02 140.00,7.35 C140.00,8.43 138.60,9.04 135.25,9.44 C94.21,14.32 71.81,34.80 67.22,71.66 L 66.50 77.50 L 52.00 78.00 C39.67,78.43 36.75,78.85 32.51,80.80 C22.34,85.48 20.49,89.61 19.44,109.94 C18.97,119.25 18.33,123.81 17.38,124.77 C16.21,125.94 16.00,125.91 16.00,124.57 ZM 277.77 124.40 C277.47,123.91 276.92,116.97 276.54,109.00 C275.74,91.91 275.02,89.11 270.40,85.05 C264.22,79.62 260.86,78.72 244.81,78.23 L 230.12 77.78 L 229.46 72.14 C228.83,66.78 228.34,64.34 226.17,55.79 C225.65,53.75 223.58,49.08 221.56,45.40 C210.17,24.68 190.69,12.87 162.95,9.86 C156.93,9.21 152.00,8.35 152.00,7.96 C152.00,7.57 152.68,6.68 153.51,5.99 C155.21,4.58 164.28,5.36 164.82,6.96 C165.00,7.52 166.05,7.55 167.40,7.04 C168.65,6.56 170.25,6.54 170.97,6.98 C171.68,7.42 173.55,7.42 175.12,6.97 C176.89,6.46 178.21,6.54 178.61,7.17 C179.00,7.81 181.29,7.94 184.61,7.53 C187.56,7.16 190.79,7.12 191.78,7.43 C193.85,8.09 194.49,12.07 192.70,13.20 C191.98,13.67 192.69,14.03 194.50,14.11 C196.15,14.19 198.40,14.40 199.50,14.57 C200.60,14.75 202.71,15.06 204.19,15.27 C207.85,15.79 210.00,17.77 210.00,20.62 C210.00,22.59 210.51,23.00 212.94,23.00 C216.00,23.00 217.23,24.14 217.75,27.46 C218.10,29.75 219.79,31.02 221.58,30.33 C223.49,29.60 224.60,32.90 224.39,38.67 C224.18,44.27 226.64,48.46 229.50,47.36 C231.35,46.65 232.68,49.72 231.18,51.22 C230.42,51.98 230.41,52.89 231.13,54.25 C231.71,55.32 232.32,59.56 232.50,63.68 C232.68,67.79 232.98,71.30 233.16,71.46 C233.35,71.63 240.25,72.03 248.50,72.35 C256.75,72.67 263.84,72.95 264.25,72.97 C264.66,72.99 265.00,73.87 265.00,74.94 C265.00,77.55 266.59,78.37 272.18,78.64 C279.02,78.97 280.97,80.32 281.05,84.78 C281.19,91.98 280.63,103.39 280.04,105.50 C279.89,106.05 279.79,106.75 279.82,107.06 C280.88,117.98 280.84,121.84 279.64,123.47 C278.91,124.48 278.06,124.90 277.77,124.40 ZM 255.25 118.34 C253.38,117.58 253.61,110.00 255.50,110.00 C256.33,110.00 257.00,110.62 257.00,111.38 C257.00,112.13 257.28,114.16 257.62,115.88 C258.23,118.92 257.81,119.37 255.25,118.34 ZM 39.00 109.14 C39.00,105.34 39.36,103.95 40.25,104.24 C42.14,104.87 42.33,109.69 40.57,112.21 C39.06,114.36 39.00,114.24 39.00,109.14 ZM 254.20 102.80 C253.54,102.14 253.00,101.12 253.00,100.52 C253.00,99.93 252.09,98.67 250.98,97.71 C249.08,96.09 242.55,96.00 147.73,96.30 C92.05,96.47 45.08,96.91 43.35,97.28 C39.56,98.07 38.20,96.03 40.89,93.60 C42.48,92.16 52.89,92.03 147.72,92.25 C249.46,92.49 252.86,92.56 254.90,94.40 C256.34,95.71 257.00,97.52 257.00,100.15 C257.00,104.14 256.25,104.85 254.20,102.80 ZM 87.00 72.76 C87.00,67.73 88.90,61.34 92.52,54.20 C94.88,49.54 103.05,41.65 108.17,39.08 C110.55,37.88 113.18,36.52 114.00,36.06 C116.25,34.80 125.86,32.27 131.24,31.53 C135.21,30.99 135.89,31.12 135.41,32.38 C135.09,33.21 133.67,34.02 132.25,34.19 C130.64,34.39 129.58,35.20 129.41,36.38 C129.00,39.20 127.55,40.21 123.32,40.62 C121.22,40.83 118.15,41.19 116.50,41.43 C114.85,41.67 113.16,41.89 112.75,41.93 C112.34,41.97 112.00,43.36 112.00,45.03 C112.00,47.60 111.54,48.14 108.95,48.66 C106.59,49.13 105.76,49.93 105.32,52.17 C104.71,55.22 102.45,57.00 99.19,57.00 C97.71,57.00 97.11,57.92 96.63,60.93 C96.14,63.98 95.50,64.93 93.79,65.18 C92.21,65.41 91.39,66.41 90.93,68.67 L 90.28 71.85 L 148.14 71.96 C195.29,72.05 206.00,71.83 206.00,70.76 C206.00,68.49 202.86,64.84 201.40,65.40 C200.35,65.80 200.00,64.98 200.00,62.11 C200.00,58.68 199.68,58.20 196.85,57.39 C194.00,56.57 193.11,55.60 191.03,51.07 C190.42,49.76 189.34,49.03 185.00,46.98 C184.18,46.59 183.50,45.20 183.50,43.88 C183.50,41.92 182.97,41.48 180.50,41.40 C178.85,41.34 176.60,41.02 175.50,40.67 C174.40,40.33 172.87,40.44 172.09,40.93 C170.19,42.12 165.89,40.08 166.08,38.07 C166.39,34.84 165.94,34.00 163.93,34.00 C162.79,34.00 161.18,33.33 160.36,32.50 C159.02,31.17 159.07,31.00 160.74,31.00 C168.65,31.00 184.66,36.45 191.59,41.50 C201.91,49.03 209.07,61.13 209.34,71.49 L 209.50 77.50 L 148.25 77.76 L 87.00 78.02 L 87.00 72.76 ZM 138.16 32.38 C136.80,31.38 137.31,31.08 141.31,30.48 C149.01,29.32 159.69,30.64 157.82,32.51 C156.68,33.65 139.74,33.53 138.16,32.38 Z" fill="rgb(253,253,253)"/>
</g>
</svg>