<?xml version="1.0" encoding="UTF-8"?>
<svg xmlns="http://www.w3.org/2000/svg" width="500" height="500" viewBox="0 0 500 500" style="background: transparent;">
<g>
<path d="M 145.75 326.00 C143.96,326.66 141.05,327.55 139.28,327.99 L 136.07 328.77 L 132.40 319.14 C130.38,313.84 127.44,306.36 125.87,302.52 C122.04,293.21 122.14,292.29 127.25,289.97 C134.51,286.68 136.24,287.19 138.39,293.25 C139.41,296.14 142.21,303.55 144.62,309.73 C147.03,315.90 149.00,321.82 149.00,322.88 C149.00,324.14 147.88,325.22 145.75,326.00 ZM 430.75 320.75 C428.91,323.07 426.33,322.29 407.50,313.78 C402.00,311.30 396.49,308.95 395.25,308.56 C392.43,307.69 392.43,306.23 395.24,300.45 C397.17,296.47 397.82,295.91 399.99,296.31 C403.69,296.99 431.27,308.85 432.86,310.43 C433.98,311.55 434.00,312.49 432.98,315.65 C432.30,317.77 431.29,320.06 430.75,320.75 ZM 366.81 114.11 L 366.50 119.50 L 361.00 119.63 C357.98,119.70 349.65,119.17 342.50,118.46 C335.35,117.74 329.16,117.12 328.75,117.07 C327.72,116.97 327.83,106.82 328.88,105.16 C329.59,104.05 332.71,104.09 347.59,105.44 C357.42,106.33 365.83,107.43 366.28,107.88 C366.74,108.34 366.98,111.14 366.81,114.11 Z" fill="rgb(151,201,225)"/>
<path d="M 263.00 491.51 C255.02,492.32 246.93,492.93 245.00,492.87 C238.69,492.67 214.62,490.17 209.00,489.13 C204.06,488.22 201.06,487.61 189.00,485.06 C183.10,483.81 164.52,477.62 164.17,476.79 C163.98,476.35 163.06,476.00 162.12,476.00 C161.17,476.00 159.97,475.63 159.45,475.17 C158.93,474.72 156.59,473.75 154.25,473.01 C151.91,472.28 150.00,471.30 150.00,470.84 C150.00,470.38 149.46,470.00 148.81,470.00 C147.51,470.00 131.30,461.97 126.50,458.95 C124.85,457.91 122.15,456.31 120.50,455.39 C116.91,453.39 109.06,448.00 107.18,446.23 C106.43,445.54 104.18,443.74 102.16,442.24 C100.15,440.74 98.28,439.28 98.00,439.00 C97.72,438.72 95.70,437.17 93.50,435.56 C91.30,433.95 87.25,430.33 84.50,427.51 C81.75,424.69 77.44,420.61 74.91,418.45 C72.39,416.28 66.81,409.55 62.52,403.50 C58.23,397.45 53.77,391.56 52.61,390.41 C49.97,387.80 43.41,377.04 43.75,375.87 C43.89,375.39 43.55,375.00 43.00,375.00 C42.45,375.00 42.00,374.33 42.00,373.50 C42.00,372.67 41.55,372.00 41.00,372.00 C40.45,372.00 40.00,371.53 40.00,370.96 C40.00,370.39 37.31,364.43 34.03,357.71 C28.11,345.61 25.24,338.13 24.44,332.67 C24.21,331.12 23.69,329.32 23.29,328.67 C22.89,328.03 22.45,327.05 22.32,326.50 C13.43,288.62 12.77,283.15 13.32,252.00 C13.75,227.36 14.23,221.94 17.02,210.00 C17.59,207.52 18.33,203.48 18.66,201.00 C18.99,198.52 19.58,196.05 19.97,195.50 C20.35,194.95 21.46,191.80 22.42,188.50 C27.12,172.37 28.61,168.51 35.21,155.50 C49.31,127.70 49.43,127.50 62.25,110.52 C71.39,98.41 94.56,75.37 105.00,68.00 C106.93,66.64 109.22,64.92 110.09,64.18 C113.13,61.60 124.00,55.89 124.00,56.87 C124.00,57.41 119.01,62.72 112.92,68.67 C96.15,85.04 80.83,106.18 69.88,128.02 C50.51,166.71 42.83,198.61 42.82,240.50 C42.81,262.24 44.60,276.90 49.64,296.50 C51.06,302.00 52.60,308.11 53.08,310.09 C55.39,319.75 71.69,353.49 79.21,364.18 C92.05,382.45 97.60,389.33 108.33,400.24 C147.56,440.12 185.59,460.71 230.92,466.60 C246.39,468.61 281.29,468.08 296.50,465.61 C312.07,463.08 332.77,457.42 344.50,452.49 C346.70,451.57 350.08,450.15 352.00,449.35 C361.01,445.60 367.93,441.87 382.15,433.13 C405.53,418.76 432.51,390.37 446.92,364.98 C461.34,339.57 467.73,323.84 476.14,293.00 C476.57,291.41 476.96,289.95 477.33,288.63 C479.36,281.12 480.27,277.78 480.60,277.83 C480.87,277.88 480.77,280.10 480.58,284.10 C480.54,284.98 480.50,285.95 480.45,287.00 C479.90,299.91 474.80,322.43 469.58,335.00 C468.79,336.92 466.92,341.65 465.44,345.50 C457.24,366.84 444.83,387.51 428.49,407.05 C415.78,422.23 390.84,443.72 372.00,455.70 C361.35,462.47 340.29,472.72 328.00,477.11 C303.51,485.86 290.58,488.73 263.00,491.51 ZM 327.75 236.26 C327.17,242.29 325.38,244.56 324.49,240.39 C323.57,236.14 314.97,217.14 311.83,212.44 C308.59,207.59 294.75,195.11 288.63,191.53 C283.20,188.34 273.23,184.25 266.00,182.24 C258.61,180.18 234.24,179.96 228.00,181.89 C225.52,182.66 221.61,183.89 219.30,184.61 C212.47,186.77 203.20,192.17 197.67,197.21 C194.83,199.81 192.23,201.94 191.90,201.96 C190.75,202.03 182.28,213.54 179.00,219.50 C173.85,228.84 172.81,230.21 171.73,229.13 C169.43,226.83 174.64,207.36 180.68,195.69 C188.58,180.42 209.41,163.75 226.82,158.75 C237.08,155.80 260.95,155.60 271.00,158.37 C278.84,160.54 288.38,165.44 296.50,171.47 C302.78,176.14 313.55,187.83 316.03,192.67 C316.82,194.23 318.25,196.62 319.20,198.00 C323.53,204.25 328.63,227.09 327.75,236.26 ZM 355.83 394.15 C353.54,396.27 350.89,398.00 349.94,398.00 C348.20,398.00 344.80,394.90 339.83,388.78 C338.36,386.98 334.90,382.94 332.14,379.80 C329.37,376.67 326.32,372.89 325.35,371.41 C323.59,368.72 323.59,368.70 327.04,365.79 C333.25,360.54 333.43,360.53 338.18,365.62 C340.56,368.16 346.44,374.22 351.25,379.09 C356.06,383.95 360.00,388.46 360.00,389.12 C360.00,389.77 358.13,392.04 355.83,394.15 ZM 218.10 385.43 C209.08,390.69 201.66,394.99 201.60,394.98 C201.55,394.97 200.06,392.49 198.29,389.47 L 195.08 383.97 L 199.02 381.49 C201.19,380.12 203.18,379.00 203.45,379.00 C203.71,379.00 209.30,375.62 215.87,371.50 C222.44,367.38 228.53,364.00 229.40,364.00 C230.28,364.00 232.33,366.14 233.96,368.75 C236.26,372.45 236.65,373.76 235.71,374.68 C235.04,375.33 227.12,380.17 218.10,385.43 ZM 396.55 227.40 C392.72,229.93 389.04,232.00 388.37,232.00 C386.67,232.00 381.94,221.77 383.04,220.45 C383.52,219.87 385.85,218.38 388.21,217.14 C390.57,215.90 395.65,212.91 399.50,210.50 C400.30,209.99 401.06,209.52 401.78,209.06 C412.88,202.09 414.69,200.95 415.76,201.44 C416.04,201.57 416.26,201.80 416.59,202.08 C418.73,203.85 422.20,210.86 421.51,211.99 C421.20,212.49 417.02,215.13 412.22,217.85 C407.42,220.57 400.37,224.87 396.55,227.40 ZM 119.55 196.78 C111.05,202.40 103.51,206.98 102.80,206.96 C101.14,206.92 96.00,200.19 96.02,198.09 C96.03,196.69 104.65,190.53 122.28,179.33 C125.02,177.59 127.76,176.37 128.38,176.61 C129.69,177.14 135.00,184.42 135.00,185.69 C135.00,186.16 128.05,191.15 119.55,196.78 ZM 234.00 99.00 C232.62,101.94 231.01,103.99 230.08,103.97 C229.21,103.96 225.80,102.43 222.50,100.58 C219.20,98.72 212.90,95.41 208.50,93.21 C200.88,89.41 198.04,88.07 197.60,86.18 C197.34,85.07 197.90,83.77 198.80,81.68 C198.87,81.52 198.94,81.35 199.02,81.18 C200.24,78.33 201.83,76.00 202.54,76.00 C204.23,76.00 213.16,80.50 219.50,84.54 C222.25,86.29 226.98,88.97 230.00,90.48 C233.02,92.00 235.69,93.41 235.92,93.62 C236.15,93.83 235.29,96.25 234.00,99.00 Z" fill="rgb(228,174,88)"/>
<path d="M 476.94 310.34 C478.84,301.79 480.18,293.26 480.45,287.00 C480.50,285.95 480.54,284.98 480.58,284.10 C480.77,280.10 480.87,277.88 480.60,277.83 C480.27,277.78 479.36,281.12 477.33,288.63 C476.96,289.95 476.57,291.41 476.14,293.00 C467.73,323.84 461.34,339.57 446.92,364.98 C432.51,390.37 405.53,418.76 382.15,433.13 C367.93,441.87 361.01,445.60 352.00,449.35 C350.08,450.15 346.70,451.57 344.50,452.49 C332.77,457.42 312.07,463.08 296.50,465.61 C281.29,468.08 246.39,468.61 230.92,466.60 C185.59,460.71 147.56,440.12 108.33,400.24 C97.60,389.33 92.05,382.45 79.21,364.18 C71.69,353.49 55.39,319.75 53.08,310.09 C52.60,308.11 51.06,302.00 49.64,296.50 C44.60,276.90 42.81,262.24 42.82,240.50 C42.83,198.61 50.51,166.71 69.88,128.02 C80.83,106.18 96.15,85.04 112.92,68.67 C119.01,62.72 124.00,57.41 124.00,56.87 C124.00,55.89 113.13,61.60 110.09,64.18 C109.34,64.82 107.52,66.19 105.80,67.43 C107.62,66.11 109.81,64.38 111.00,63.33 C116.45,58.52 140.48,44.32 142.32,44.82 C142.78,44.95 142.93,44.69 142.66,44.26 C142.05,43.26 155.43,34.00 157.48,34.00 C158.32,34.00 159.00,33.55 159.00,33.00 C159.00,32.45 159.68,32.00 160.50,32.00 C161.32,32.00 162.00,31.65 162.00,31.22 C162.00,30.01 173.73,24.72 174.86,25.42 C175.41,25.75 176.12,25.62 176.43,25.12 C177.48,23.41 188.91,18.00 191.46,18.00 C192.86,18.00 194.00,17.57 194.00,17.05 C194.00,16.52 195.69,15.77 197.75,15.39 C199.81,15.00 202.91,14.10 204.62,13.38 C206.34,12.67 208.03,12.36 208.37,12.71 C208.72,13.05 209.00,12.78 209.00,12.10 C209.00,11.43 209.79,10.97 210.75,11.09 C211.71,11.21 213.84,10.76 215.48,10.09 C217.12,9.42 220.33,8.79 222.62,8.69 C224.92,8.58 226.63,8.24 226.44,7.92 C225.88,7.00 240.26,5.03 256.50,3.81 C275.23,2.40 292.61,3.36 293.23,5.84 C293.47,6.75 292.80,11.77 291.75,17.00 C290.34,24.04 290.03,28.31 290.55,33.50 C290.93,37.35 291.26,41.72 291.27,43.22 C291.28,44.72 291.67,45.70 292.15,45.41 C292.93,44.92 293.38,46.66 293.27,49.74 C293.25,50.42 293.62,50.73 294.11,50.43 C294.96,49.91 295.17,50.38 295.40,53.25 C295.45,53.94 296.06,55.17 296.75,56.00 C303.21,63.73 305.54,66.10 309.17,68.60 C311.48,70.20 314.38,72.49 315.60,73.71 C316.83,74.92 319.10,76.20 320.66,76.54 C322.22,76.88 324.40,77.54 325.50,78.01 C331.00,80.34 346.75,80.83 354.50,78.91 C356.70,78.37 359.02,77.81 359.65,77.67 C360.28,77.53 361.41,76.91 362.15,76.29 C362.89,75.67 363.73,75.22 364.00,75.29 C364.55,75.42 367.25,73.31 373.18,68.11 C375.31,66.25 377.34,65.01 377.69,65.36 C378.05,65.71 377.70,66.01 376.92,66.02 C375.70,66.03 375.70,66.16 376.90,66.92 C377.68,67.41 378.27,69.19 378.22,70.89 C378.17,72.58 378.55,74.22 379.07,74.54 C379.58,74.86 380.00,76.58 380.00,78.37 C380.00,81.72 382.79,88.42 386.20,93.25 C387.26,94.76 387.91,96.00 387.64,96.00 C386.57,96.00 398.71,106.78 402.00,108.75 C405.77,111.00 415.34,114.43 421.00,115.54 C426.14,116.56 428.33,117.90 427.15,119.32 C426.61,119.97 426.07,120.95 425.96,121.50 C425.61,123.14 424.87,125.38 423.98,127.50 C422.46,131.10 421.99,140.38 423.02,146.50 C423.57,149.80 424.25,153.82 424.52,155.44 C424.79,157.06 425.37,158.64 425.82,158.94 C426.27,159.25 428.16,161.75 430.03,164.50 C434.92,171.70 442.87,179.39 447.50,181.42 C449.70,182.38 452.28,183.58 453.24,184.08 C454.19,184.59 455.88,185.00 456.99,185.00 C458.09,185.00 459.00,185.34 459.00,185.75 C459.00,186.16 462.83,186.34 467.51,186.15 C472.19,185.95 476.80,186.14 477.76,186.56 C478.72,186.97 479.87,187.23 480.33,187.13 C480.78,187.03 481.06,188.20 480.93,189.72 C480.81,191.25 480.99,193.18 481.32,194.00 C482.43,196.76 483.99,218.37 483.99,231.00 C483.98,244.78 481.61,283.23 480.04,295.00 C479.52,298.88 478.36,304.46 476.94,310.34 ZM 327.75 236.26 C328.63,227.09 323.53,204.25 319.20,198.00 C318.25,196.62 316.82,194.23 316.03,192.67 C313.55,187.83 302.78,176.14 296.50,171.47 C288.38,165.44 278.84,160.54 271.00,158.37 C260.95,155.60 237.08,155.80 226.82,158.75 C209.41,163.75 188.58,180.42 180.68,195.69 C174.64,207.36 169.43,226.83 171.73,229.13 C172.81,230.21 173.85,228.84 179.00,219.50 C179.32,218.92 179.68,218.29 180.09,217.62 C179.01,219.51 177.95,221.54 176.85,223.78 C173.26,231.06 172.48,233.68 172.17,239.65 C171.93,244.19 172.35,248.71 173.32,252.02 C174.16,254.88 174.58,257.93 174.25,258.78 C173.86,259.80 174.06,260.08 174.83,259.61 C175.57,259.15 176.00,259.61 176.00,260.88 C176.00,261.98 176.40,263.13 176.90,263.44 C178.44,264.39 181.90,271.76 181.18,272.56 C180.81,272.98 181.01,273.03 181.63,272.67 C182.28,272.31 183.35,273.24 184.13,274.84 C185.69,278.05 190.59,284.40 193.39,286.85 C197.56,290.48 201.68,293.69 205.17,296.00 C207.20,297.34 208.59,298.90 208.26,299.47 C207.94,300.04 208.05,300.16 208.51,299.75 C208.96,299.34 211.73,300.35 214.67,302.01 C217.60,303.66 220.00,304.78 220.00,304.49 C220.00,304.19 221.01,304.60 222.25,305.38 C223.49,306.17 226.52,307.13 229.00,307.52 C231.48,307.91 234.03,308.51 234.68,308.86 C236.18,309.67 263.00,309.71 263.00,308.90 C263.00,308.57 266.00,307.80 269.66,307.19 C273.33,306.58 276.59,305.72 276.91,305.27 C277.97,303.81 283.12,301.96 284.23,302.64 C284.83,303.01 285.02,302.85 284.67,302.27 C284.00,301.18 289.77,298.29 291.50,298.85 C292.05,299.02 292.15,298.81 291.72,298.38 C291.29,297.95 293.19,296.18 295.94,294.44 C298.70,292.71 300.71,291.05 300.42,290.76 C300.13,290.47 301.52,289.22 303.51,287.99 C305.50,286.76 308.18,284.08 309.48,282.04 C310.77,279.99 312.43,277.69 313.16,276.91 C313.90,276.13 315.57,273.48 316.88,271.00 C318.20,268.52 319.77,266.05 320.38,265.50 C321.00,264.95 321.53,264.05 321.56,263.50 C321.70,260.89 323.33,257.00 324.28,257.00 C324.86,257.00 325.04,256.70 324.68,256.34 C324.31,255.98 324.40,255.19 324.87,254.59 C325.33,253.99 325.35,249.89 324.91,245.48 C324.53,241.75 324.00,238.96 322.86,235.65 C323.69,237.75 324.28,239.44 324.49,240.39 C325.38,244.56 327.17,242.29 327.75,236.26 ZM 145.75 326.00 C147.88,325.22 149.00,324.14 149.00,322.88 C149.00,321.82 147.03,315.90 144.62,309.73 C142.21,303.55 139.41,296.14 138.39,293.25 C136.24,287.19 134.51,286.68 127.25,289.97 C122.14,292.29 122.04,293.21 125.87,302.52 C127.44,306.36 130.38,313.84 132.40,319.14 L 136.07 328.77 L 139.28 327.99 C141.05,327.55 143.96,326.66 145.75,326.00 ZM 355.83 394.15 C358.13,392.04 360.00,389.77 360.00,389.12 C360.00,388.46 356.06,383.95 351.25,379.09 C346.44,374.22 340.56,368.16 338.18,365.62 C333.43,360.53 333.25,360.54 327.04,365.79 C323.59,368.70 323.59,368.72 325.35,371.41 C326.32,372.89 329.37,376.67 332.14,379.80 C334.90,382.94 338.36,386.98 339.83,388.78 C344.80,394.90 348.20,398.00 349.94,398.00 C350.89,398.00 353.54,396.27 355.83,394.15 ZM 430.75 320.75 C431.29,320.06 432.30,317.77 432.98,315.65 C434.00,312.49 433.98,311.55 432.86,310.43 C431.27,308.85 403.69,296.99 399.99,296.31 C397.82,295.91 397.17,296.47 395.24,300.45 C392.43,306.23 392.43,307.69 395.25,308.56 C396.49,308.95 402.00,311.30 407.50,313.78 C426.33,322.29 428.91,323.07 430.75,320.75 ZM 218.10 385.43 C227.12,380.17 235.04,375.33 235.71,374.68 C236.65,373.76 236.26,372.45 233.96,368.75 C232.33,366.14 230.28,364.00 229.40,364.00 C228.53,364.00 222.44,367.38 215.87,371.50 C209.30,375.62 203.71,379.00 203.45,379.00 C203.18,379.00 201.19,380.12 199.02,381.49 L 195.08 383.97 L 198.29 389.47 C200.06,392.49 201.55,394.97 201.60,394.98 C201.66,394.99 209.08,390.69 218.10,385.43 ZM 396.55 227.40 C400.37,224.87 407.42,220.57 412.22,217.85 C417.02,215.13 421.20,212.49 421.51,211.99 C422.20,210.86 418.73,203.85 416.59,202.08 C416.26,201.80 416.04,201.57 415.76,201.44 C414.69,200.95 412.88,202.09 401.78,209.06 C401.06,209.52 400.30,209.99 399.50,210.50 C395.65,212.91 390.57,215.90 388.21,217.14 C385.85,218.38 383.52,219.87 383.04,220.45 C381.94,221.77 386.67,232.00 388.37,232.00 C389.04,232.00 392.72,229.93 396.55,227.40 ZM 119.55 196.78 C128.05,191.15 135.00,186.16 135.00,185.69 C135.00,184.42 129.69,177.14 128.38,176.61 C127.76,176.37 125.02,177.59 122.28,179.33 C104.65,190.53 96.03,196.69 96.02,198.09 C96.00,200.19 101.14,206.92 102.80,206.96 C103.51,206.98 111.05,202.40 119.55,196.78 ZM 366.81 114.11 C366.98,111.14 366.74,108.34 366.28,107.88 C365.83,107.43 357.42,106.33 347.59,105.44 C332.71,104.09 329.59,104.05 328.88,105.16 C327.83,106.82 327.72,116.97 328.75,117.07 C329.16,117.12 335.35,117.74 342.50,118.46 C349.65,119.17 357.98,119.70 361.00,119.63 L 366.50 119.50 ZM 234.00 99.00 C235.29,96.25 236.15,93.83 235.92,93.62 C235.69,93.41 233.02,92.00 230.00,90.48 C226.98,88.97 222.25,86.29 219.50,84.54 C213.16,80.50 204.23,76.00 202.54,76.00 C201.83,76.00 200.24,78.33 199.02,81.18 C198.94,81.35 198.87,81.52 198.80,81.68 C197.90,83.77 197.34,85.07 197.60,86.18 C198.04,88.07 200.88,89.41 208.50,93.21 C212.90,95.41 219.20,98.72 222.50,100.58 C225.80,102.43 229.21,103.96 230.08,103.97 C231.01,103.99 232.62,101.94 234.00,99.00 ZM 186.11 208.71 C188.84,204.99 191.31,202.00 191.90,201.96 C192.05,201.95 192.67,201.50 193.58,200.77 C190.65,203.52 188.24,206.07 186.11,208.71 ZM 298.90 199.38 C293.84,195.09 289.15,191.81 284.08,189.14 C285.79,189.96 287.34,190.77 288.63,191.53 C291.16,193.01 295.02,196.02 298.90,199.38 ZM 207.76 189.97 C211.70,187.66 215.82,185.72 219.30,184.61 C221.61,183.89 225.52,182.66 228.00,181.89 C225.52,182.66 221.56,183.90 219.20,184.65 C216.41,185.53 211.81,187.73 207.76,189.97 ZM 314.38 216.98 C312.87,214.15 311.51,212.02 309.92,210.03 C310.72,210.95 311.38,211.77 311.83,212.44 C312.48,213.42 313.37,215.02 314.38,216.98 Z" fill="rgb(249,228,175)"/>
<path d="M 0.00 250.00 L 0.00 0.00 L 250.00 0.00 L 500.00 0.00 L 500.00 250.00 L 500.00 500.00 L 250.00 500.00 L 0.00 500.00 L 0.00 250.00 ZM 263.00 491.51 C290.58,488.73 303.51,485.86 328.00,477.11 C340.29,472.72 361.35,462.47 372.00,455.70 C390.84,443.72 415.78,422.23 428.49,407.05 C444.83,387.51 457.24,366.84 465.44,345.50 C466.92,341.65 468.79,336.92 469.58,335.00 C473.06,326.62 478.69,305.07 480.04,295.00 C481.61,283.23 483.98,244.78 483.99,231.00 C483.99,218.37 482.43,196.76 481.32,194.00 C480.99,193.18 480.81,191.25 480.93,189.72 C481.06,188.20 480.78,187.03 480.33,187.13 C479.87,187.23 478.72,186.97 477.76,186.56 C476.80,186.14 472.19,185.95 467.51,186.15 C462.83,186.34 459.00,186.16 459.00,185.75 C459.00,185.34 458.09,185.00 456.99,185.00 C455.88,185.00 454.19,184.59 453.24,184.08 C452.28,183.58 449.70,182.38 447.50,181.42 C442.87,179.39 434.92,171.70 430.03,164.50 C428.16,161.75 426.27,159.25 425.82,158.94 C425.37,158.64 424.79,157.06 424.52,155.44 C424.25,153.82 423.57,149.80 423.02,146.50 C421.99,140.38 422.46,131.10 423.98,127.50 C424.87,125.38 425.61,123.14 425.96,121.50 C426.07,120.95 426.61,119.97 427.15,119.32 C428.33,117.90 426.14,116.56 421.00,115.54 C415.34,114.43 405.77,111.00 402.00,108.75 C398.71,106.78 386.57,96.00 387.64,96.00 C387.91,96.00 387.26,94.76 386.20,93.25 C382.79,88.42 380.00,81.72 380.00,78.37 C380.00,76.58 379.58,74.86 379.07,74.54 C378.55,74.22 378.17,72.58 378.22,70.89 C378.27,69.19 377.68,67.41 376.90,66.92 C375.70,66.16 375.70,66.03 376.92,66.02 C377.70,66.01 378.05,65.71 377.69,65.36 C377.34,65.01 375.31,66.25 373.18,68.11 C367.25,73.31 364.55,75.42 364.00,75.29 C363.73,75.22 362.89,75.67 362.15,76.29 C361.41,76.91 360.28,77.53 359.65,77.67 C359.02,77.81 356.70,78.37 354.50,78.91 C346.75,80.83 331.00,80.34 325.50,78.01 C324.40,77.54 322.22,76.88 320.66,76.54 C319.10,76.20 316.83,74.92 315.60,73.71 C314.38,72.49 311.48,70.20 309.17,68.60 C305.54,66.10 303.21,63.73 296.75,56.00 C296.06,55.17 295.45,53.94 295.40,53.25 C295.17,50.38 294.96,49.91 294.11,50.43 C293.62,50.73 293.25,50.42 293.27,49.74 C293.38,46.66 292.93,44.92 292.15,45.41 C291.67,45.70 291.28,44.72 291.27,43.22 C291.26,41.72 290.93,37.35 290.55,33.50 C290.03,28.31 290.34,24.04 291.75,17.00 C292.80,11.77 293.47,6.75 293.23,5.84 C292.61,3.36 275.23,2.40 256.50,3.81 C240.26,5.03 225.88,7.00 226.44,7.92 C226.63,8.24 224.92,8.58 222.62,8.69 C220.33,8.79 217.12,9.42 215.48,10.09 C213.84,10.76 211.71,11.21 210.75,11.09 C209.79,10.97 209.00,11.43 209.00,12.10 C209.00,12.78 208.72,13.05 208.37,12.71 C208.03,12.36 206.34,12.67 204.62,13.38 C202.91,14.10 199.81,15.00 197.75,15.39 C195.69,15.77 194.00,16.52 194.00,17.05 C194.00,17.57 192.86,18.00 191.46,18.00 C188.91,18.00 177.48,23.41 176.43,25.12 C176.12,25.62 175.41,25.75 174.86,25.42 C173.73,24.72 162.00,30.01 162.00,31.22 C162.00,31.65 161.32,32.00 160.50,32.00 C159.68,32.00 159.00,32.45 159.00,33.00 C159.00,33.55 158.32,34.00 157.48,34.00 C155.43,34.00 142.05,43.26 142.66,44.26 C142.93,44.69 142.78,44.95 142.32,44.82 C140.48,44.32 116.45,58.52 111.00,63.33 C109.62,64.54 106.93,66.65 105.00,68.00 C94.59,75.34 71.40,98.41 62.25,110.52 C49.43,127.50 49.31,127.70 35.21,155.50 C28.61,168.51 27.12,172.37 22.42,188.50 C21.46,191.80 20.35,194.95 19.97,195.50 C19.58,196.05 18.99,198.52 18.66,201.00 C18.33,203.48 17.59,207.52 17.02,210.00 C14.23,221.94 13.75,227.36 13.32,252.00 C12.77,283.15 13.43,288.62 22.32,326.50 C22.45,327.05 22.89,328.03 23.29,328.67 C23.69,329.32 24.21,331.12 24.44,332.67 C25.24,338.13 28.11,345.61 34.03,357.71 C37.31,364.43 40.00,370.39 40.00,370.96 C40.00,371.53 40.45,372.00 41.00,372.00 C41.55,372.00 42.00,372.67 42.00,373.50 C42.00,374.33 42.45,375.00 43.00,375.00 C43.55,375.00 43.89,375.39 43.75,375.87 C43.41,377.04 49.97,387.80 52.61,390.41 C53.77,391.56 58.23,397.45 62.52,403.50 C66.81,409.55 72.39,416.28 74.91,418.45 C77.44,420.61 81.75,424.69 84.50,427.51 C87.25,430.33 91.30,433.95 93.50,435.56 C95.70,437.17 97.72,438.72 98.00,439.00 C98.28,439.28 100.15,440.74 102.16,442.24 C104.18,443.74 106.43,445.54 107.18,446.23 C109.06,448.00 116.91,453.39 120.50,455.39 C122.15,456.31 124.85,457.91 126.50,458.95 C131.30,461.97 147.51,470.00 148.81,470.00 C149.46,470.00 150.00,470.38 150.00,470.84 C150.00,471.30 151.91,472.28 154.25,473.01 C156.59,473.75 158.93,474.72 159.45,475.17 C159.97,475.63 161.17,476.00 162.12,476.00 C163.06,476.00 163.98,476.35 164.17,476.79 C164.52,477.62 183.10,483.81 189.00,485.06 C201.06,487.61 204.06,488.22 209.00,489.13 C214.62,490.17 238.69,492.67 245.00,492.87 C246.93,492.93 255.02,492.32 263.00,491.51 ZM 234.68 308.86 C234.03,308.51 231.48,307.91 229.00,307.52 C226.52,307.13 223.49,306.17 222.25,305.38 C221.01,304.60 220.00,304.19 220.00,304.49 C220.00,304.78 217.60,303.66 214.67,302.01 C211.73,300.35 208.96,299.34 208.51,299.75 C208.05,300.16 207.94,300.04 208.26,299.47 C208.59,298.90 207.20,297.34 205.17,296.00 C201.68,293.69 197.56,290.48 193.39,286.85 C190.59,284.40 185.69,278.05 184.13,274.84 C183.35,273.24 182.28,272.31 181.63,272.67 C181.01,273.03 180.81,272.98 181.18,272.56 C181.90,271.76 178.44,264.39 176.90,263.44 C176.40,263.13 176.00,261.98 176.00,260.88 C176.00,259.61 175.57,259.15 174.83,259.61 C174.06,260.08 173.86,259.80 174.25,258.78 C174.58,257.93 174.16,254.88 173.32,252.02 C172.35,248.71 171.93,244.19 172.17,239.65 C172.48,233.68 173.26,231.06 176.85,223.78 C183.00,211.30 187.97,205.19 200.71,194.48 C204.07,191.65 214.37,186.18 219.20,184.65 C221.56,183.90 225.52,182.66 228.00,181.89 C234.24,179.96 258.61,180.18 266.00,182.24 C280.86,186.37 289.95,191.34 301.47,201.62 C310.88,210.01 312.35,212.11 319.24,226.98 C323.15,235.41 324.26,239.03 324.91,245.48 C325.35,249.89 325.33,253.99 324.87,254.59 C324.40,255.19 324.31,255.98 324.68,256.34 C325.04,256.70 324.86,257.00 324.28,257.00 C323.33,257.00 321.70,260.89 321.56,263.50 C321.53,264.05 321.00,264.95 320.38,265.50 C319.77,266.05 318.20,268.52 316.88,271.00 C315.57,273.48 313.90,276.13 313.16,276.91 C312.43,277.69 310.77,279.99 309.48,282.04 C308.18,284.08 305.50,286.76 303.51,287.99 C301.52,289.22 300.13,290.47 300.42,290.76 C300.71,291.05 298.70,292.71 295.94,294.44 C293.19,296.18 291.29,297.95 291.72,298.38 C292.15,298.81 292.05,299.02 291.50,298.85 C289.77,298.29 284.00,301.18 284.67,302.27 C285.02,302.85 284.83,303.01 284.23,302.64 C283.12,301.96 277.97,303.81 276.91,305.27 C276.59,305.72 273.33,306.58 269.66,307.19 C266.00,307.80 263.00,308.57 263.00,308.90 C263.00,309.71 236.18,309.67 234.68,308.86 Z" fill="rgb(254,254,253)"/>
</g>
</svg>